<svg width="23" height="28" viewBox="0 0 23 28" fill="none" xmlns="http://www.w3.org/2000/svg">
<path d="M5.71043 6.29275C5.58296 4.37219 6.14677 2.73654 7.60971 1.44828C8.69418 0.493207 9.9875 0.00573126 11.4563 5.19221e-05C13.1919 -0.00657397 14.6548 0.620992 15.8187 1.86287C16.9855 3.10759 17.4052 4.60221 17.2895 6.29181C17.669 6.29181 18.018 6.28518 18.3661 6.2937C18.8681 6.30506 19.38 6.27288 19.8712 6.35239C21.1547 6.56063 22.1215 7.58669 22.2 8.83709C22.3216 10.7577 22.403 12.6811 22.4981 14.6035C22.6334 17.3419 22.7677 20.0793 22.9001 22.8177C22.9364 23.575 22.9805 24.3322 22.9991 25.0904C23.0383 26.7336 21.7725 27.9935 20.0644 27.9954C14.3538 28.0011 8.64417 28.002 2.93357 27.9954C1.21765 27.9935 -0.067825 26.7147 0.00277309 25.0592C0.12632 22.1646 0.278302 19.2719 0.418517 16.3783C0.527356 14.1255 0.633253 11.8727 0.745033 9.6199C0.763663 9.24222 0.772488 8.85792 0.851911 8.49065C1.13332 7.2005 2.27662 6.30884 3.63857 6.2937C4.3122 6.28613 4.98582 6.29275 5.71043 6.29275ZM11.4838 26.1316C14.3244 26.1316 17.164 26.1326 20.0046 26.1307C20.6998 26.1307 21.0861 25.7388 21.0635 25.0686C21.0528 24.7582 21.042 24.4467 21.0263 24.1363C20.8733 20.9994 20.7194 17.8634 20.5654 14.7266C20.4743 12.8618 20.3899 10.9971 20.2899 9.13337C20.2527 8.43954 19.8722 8.11677 19.1633 8.12055C17.7033 8.12812 16.2423 8.1338 14.7823 8.13759C11.1161 8.14706 7.44989 8.15463 3.78467 8.16409C3.12478 8.16599 2.75512 8.49065 2.71295 9.13337C2.66393 9.90008 2.63843 10.6677 2.60117 11.4344C2.38154 15.9495 2.15994 20.4655 1.94128 24.9806C1.90304 25.77 2.26583 26.1316 3.08359 26.1326C5.88398 26.1316 8.68437 26.1316 11.4838 26.1316ZM15.352 6.27855C15.4922 4.62398 14.9774 3.26567 13.4821 2.40241C12.0976 1.60352 10.667 1.64801 9.32858 2.51978C7.96074 3.41049 7.50872 4.72147 7.65286 6.27855H15.352Z" fill="#486642"/>
</svg>
