<svg width="19" height="19" viewBox="0 0 19 19" fill="none" xmlns="http://www.w3.org/2000/svg">
<path d="M9.5 2C5.3525 2 2 5.3525 2 9.5C2 13.6475 5.3525 17 9.5 17C13.6475 17 17 13.6475 17 9.5C17 5.3525 13.6475 2 9.5 2ZM9.5 15.5C6.1925 15.5 3.5 12.8075 3.5 9.5C3.5 6.1925 6.1925 3.5 9.5 3.5C12.8075 3.5 15.5 6.1925 15.5 9.5C15.5 12.8075 12.8075 15.5 9.5 15.5ZM12.1925 5.75L9.5 8.4425L6.8075 5.75L5.75 6.8075L8.4425 9.5L5.75 12.1925L6.8075 13.25L9.5 10.5575L12.1925 13.25L13.25 12.1925L10.5575 9.5L13.25 6.8075L12.1925 5.75Z" fill="#E31B23"/>
</svg>
