<svg width="24" height="25" viewBox="0 0 24 25" fill="none" xmlns="http://www.w3.org/2000/svg">
<g id="Finance">
<g id="Union">
<path d="M21 7.78V5.5C21 4.4 20.1 3.5 19 3.5H5C3.89 3.5 3 4.4 3 5.5V19.5C3 20.6 3.89 21.5 5 21.5H19C20.1 21.5 21 20.6 21 19.5V17.22C21.59 16.87 22 16.24 22 15.5V9.5C22 8.76 21.59 8.13 21 7.78ZM20 9.5V15.5H13V9.5H20ZM5 19.5V5.5H19V7.5H13C11.9 7.5 11 8.4 11 9.5V15.5C11 16.6 11.9 17.5 13 17.5H19V19.5H5Z" fill="#666666"/>
<path d="M16 14C16.8284 14 17.5 13.3284 17.5 12.5C17.5 11.6716 16.8284 11 16 11C15.1716 11 14.5 11.6716 14.5 12.5C14.5 13.3284 15.1716 14 16 14Z" fill="#666666"/>
</g>
</g>
</svg>
