<svg width="24" height="24" viewBox="0 0 24 24" fill="none" xmlns="http://www.w3.org/2000/svg">
<path d="M12.0001 16C11.8949 16.0006 11.7906 15.9804 11.6931 15.9406C11.5957 15.9008 11.5071 15.8422 11.4324 15.7681L5.03498 9.37071C4.96042 9.29615 4.90128 9.20763 4.86093 9.11022C4.82057 9.0128 4.7998 8.90839 4.7998 8.80294C4.7998 8.58999 4.8844 8.38576 5.03498 8.23518C5.18556 8.0846 5.38979 8 5.60275 8C5.8157 8 6.01993 8.0846 6.17051 8.23518L12.0001 14.0728L17.8297 8.23518C17.9803 8.0846 18.1845 8 18.3975 8C18.6104 8 18.8147 8.0846 18.9653 8.23518C19.1158 8.38576 19.2004 8.58999 19.2004 8.80294C19.2004 9.0159 19.1158 9.22013 18.9653 9.37071L12.5679 15.7681C12.4932 15.8422 12.4045 15.9008 12.3071 15.9406C12.2097 15.9804 12.1054 16.0006 12.0001 16Z" fill="#609966"/>
</svg>
