<svg width="20" height="19" viewBox="0 0 20 19" fill="none" xmlns="http://www.w3.org/2000/svg">
<path d="M1.83747 13.2075C1.02714 9.96616 0.621974 8.34643 1.47292 7.25655C2.32292 6.16666 3.99459 6.16666 7.33509 6.16666H11.7079C15.0493 6.16666 16.7191 6.16666 17.57 7.25655C18.421 8.34549 18.0158 9.9671 17.2055 13.2075C16.6898 15.2692 16.4329 16.2996 15.6641 16.9003C14.8954 17.5 13.8329 17.5 11.7079 17.5H7.33509C5.21009 17.5 4.14759 17.5 3.37881 16.9003C2.61003 16.2996 2.3522 15.2692 1.83747 13.2075Z" stroke="#808080" stroke-width="2"/>
<path d="M16.6044 6.63851L15.9339 4.17823C15.6751 3.22906 15.5457 2.75495 15.2803 2.39701C15.0157 2.04139 14.6563 1.76744 14.2433 1.60651C13.8277 1.44406 13.3366 1.44406 12.3544 1.44406M2.43774 6.63851L3.1083 4.17823C3.36708 3.22906 3.49647 2.75495 3.76186 2.39701C4.02647 2.04139 4.38584 1.76744 4.79886 1.60651C5.21441 1.44406 5.70552 1.44406 6.68774 1.44406" stroke="#808080" stroke-width="2"/>
<path d="M6.68774 1.44444C6.68774 1.19396 6.78725 0.953739 6.96437 0.776621C7.14148 0.599504 7.38171 0.5 7.63219 0.5H11.41C11.6604 0.5 11.9007 0.599504 12.0778 0.776621C12.2549 0.953739 12.3544 1.19396 12.3544 1.44444C12.3544 1.69493 12.2549 1.93515 12.0778 2.11227C11.9007 2.28938 11.6604 2.38889 11.41 2.38889H7.63219C7.38171 2.38889 7.14148 2.28938 6.96437 2.11227C6.78725 1.93515 6.68774 1.69493 6.68774 1.44444Z" stroke="#808080" stroke-width="2"/>
</svg>
