<svg width="29" height="26" viewBox="0 0 29 26" fill="none" xmlns="http://www.w3.org/2000/svg">
<path d="M28.9977 8.15047L28.9786 8.04745C28.9674 7.98744 28.955 7.92744 28.9494 7.86744C28.7862 6.24506 28.264 4.771 27.3942 3.48487C25.5622 0.774497 22.2087 -0.543329 19.0523 0.210684C17.3564 0.614863 15.9205 1.56587 14.6602 3.11692C14.6095 3.17919 14.56 3.24259 14.5094 3.30826C14.4554 3.23693 14.4047 3.17127 14.3518 3.10673C12.2576 0.571841 9.67392 -0.421057 6.68622 0.162002C3.72778 0.736004 1.68421 2.52707 0.612919 5.48425C-0.48876 8.52635 -0.103904 11.5345 1.75623 14.4271C2.69362 15.8842 3.85944 17.2292 5.32009 18.5391C7.54145 20.5317 9.82696 22.5243 12.0382 24.4512L13.2074 25.4713C13.6114 25.8245 14.0491 26 14.4936 26C14.9584 26 15.4288 25.8075 15.8733 25.4237L16.2772 25.0739C18.1689 23.4357 20.0617 21.7986 21.9443 20.1502C23.5906 18.7101 25.3079 17.116 26.71 15.2253C27.7194 13.8645 28.3676 12.55 28.6928 11.2084C28.7873 10.8178 28.8503 10.4193 28.9122 10.0321C28.9392 9.86003 28.9662 9.68907 28.9966 9.51812L29 9.49774L28.9977 8.15047ZM25.4541 13.295C24.2422 15.1404 22.669 16.6394 21.2916 17.8621C19.7229 19.2546 18.1363 20.6279 16.5507 22.0012C15.8789 22.5832 15.2071 23.1651 14.5341 23.7493C14.5251 23.7572 14.5173 23.764 14.5071 23.7731L14.0975 23.4198C13.6947 23.0723 13.294 22.7281 12.8968 22.3782L11.2471 20.9314C9.77182 19.6396 8.24702 18.3036 6.76837 16.9654C5.43825 15.7608 4.39059 14.5596 3.56348 13.2927C2.0882 11.0341 1.76074 8.67919 2.58784 6.29148C3.34855 4.0985 4.82721 2.74897 6.98218 2.28026C7.4278 2.1829 7.85992 2.13534 8.27966 2.13534C9.76844 2.13534 11.0929 2.74331 12.2306 3.95245C12.5536 4.29663 12.8405 4.69628 13.1185 5.08347C13.2288 5.23858 13.3402 5.39368 13.4538 5.54652C13.7205 5.90428 14.1054 6.1092 14.5116 6.1092H14.5195C14.9246 6.10581 15.3061 5.89862 15.566 5.54086C15.6324 5.44916 15.6932 5.35519 15.7528 5.26009L15.8631 5.09026C16.6475 3.9332 17.4622 3.17806 18.4255 2.71274C20.2248 1.84325 22.0332 1.93269 23.7977 2.9754C25.5363 4.00453 26.5221 5.62577 26.8101 7.93197C27.0431 9.79776 26.5997 11.5515 25.4541 13.295Z" fill="#486642"/>
</svg>
