<svg width="167" height="31" viewBox="0 0 167 31" fill="none" xmlns="http://www.w3.org/2000/svg">
<g clip-path="url(#clip0_4547_12494)">
<path d="M39.0908 9.90331C38.6838 9.90331 38.3106 10.0472 37.9698 10.3349C37.6289 10.6226 37.3365 11.0285 37.0926 11.5524C36.8487 12.0764 36.6607 12.7079 36.5284 13.4453C36.3962 14.1843 36.3301 14.9991 36.3301 15.8895C36.3301 16.7905 36.4388 17.5946 36.6577 18.3018C36.8766 19.009 37.1778 19.6087 37.5642 20.1009C37.9507 20.593 38.4032 20.9701 38.9204 21.2321C39.439 21.494 39.9973 21.6243 40.5968 21.6243C41.1756 21.6243 41.7075 21.5349 42.1894 21.3578C42.6713 21.1791 43.0989 20.9807 43.4706 20.7611C43.8408 20.5415 44.1464 20.331 44.3859 20.1327C44.624 19.9343 44.79 19.8131 44.8811 19.7707C45.0236 19.7086 45.1382 19.7208 45.2234 19.8101C45.3101 19.8995 45.3072 20.0327 45.2161 20.2114C45.1558 20.3265 45.053 20.4991 44.9105 20.7293C44.7679 20.9595 44.5769 21.2139 44.3389 21.491C44.0994 21.7681 43.8129 22.0544 43.4779 22.3481C43.143 22.6419 42.7536 22.9084 42.3114 23.1492C41.8691 23.39 41.3711 23.5869 40.8171 23.7383C40.2632 23.8897 39.6462 23.967 38.9644 23.967C37.9066 23.967 36.9574 23.8095 36.1141 23.496C35.2708 23.181 34.5494 22.7207 33.9499 22.1134C33.3505 21.5062 32.8906 20.7596 32.5703 19.8737C32.25 18.9893 32.0898 17.9808 32.0898 16.8481C32.0898 15.8531 32.2118 14.9673 32.4557 14.1919C32.6996 13.4166 33.0228 12.7412 33.4239 12.1642C33.825 11.5888 34.2849 11.1012 34.8035 10.7029C35.3222 10.3046 35.8526 9.98206 36.3962 9.73673C36.9398 9.4899 37.4761 9.31272 38.005 9.20217C38.5339 9.09163 39.0114 9.03711 39.4375 9.03711C40.1281 9.03711 40.7643 9.10223 41.3431 9.23397C41.922 9.36572 42.4201 9.54896 42.8374 9.78368C43.2546 10.0199 43.5793 10.297 43.8129 10.6166C44.0465 10.9361 44.1641 11.2798 44.1641 11.6463C44.1641 11.9704 44.1112 12.243 44.0039 12.4641C43.8967 12.6836 43.76 12.8654 43.5925 13.0062C43.425 13.147 43.237 13.25 43.0284 13.3121C42.8197 13.3757 42.6096 13.406 42.3951 13.406C42.0895 13.406 41.803 13.3484 41.5341 13.2333C41.2653 13.1182 41.0434 12.9244 40.8715 12.6518C40.7393 12.4535 40.632 12.196 40.5512 11.8825C40.4704 11.5676 40.3764 11.2647 40.2691 10.9709C40.1619 10.6771 40.0223 10.4258 39.8504 10.2168C39.6799 10.0078 39.4258 9.90331 39.0908 9.90331Z" fill="#486642"/>
<path d="M51.6698 21.0273C51.6698 21.4574 51.7579 21.8026 51.9372 22.0646C52.115 22.3266 52.3177 22.5341 52.5469 22.6855C52.7761 22.8369 52.9995 22.9444 53.2184 23.008C53.4373 23.0701 53.5872 23.108 53.668 23.1186C53.7488 23.1398 53.8075 23.1731 53.8428 23.2201C53.8781 23.267 53.8913 23.317 53.881 23.37C53.8707 23.423 53.8428 23.4699 53.7973 23.5108C53.7517 23.5532 53.6885 23.5729 53.6063 23.5729H45.618C45.5372 23.5729 45.4725 23.5517 45.427 23.5108C45.3814 23.4684 45.3535 23.4215 45.3432 23.37C45.3329 23.317 45.3462 23.2685 45.3814 23.2201C45.4167 23.1731 45.4755 23.1383 45.5563 23.1186C45.6371 23.108 45.7869 23.0716 46.0059 23.008C46.2248 22.9444 46.4481 22.8384 46.6773 22.6855C46.9065 22.5341 47.1093 22.3266 47.287 22.0646C47.4648 21.8026 47.5544 21.4574 47.5544 21.0273V3.41252C47.5544 3.27623 47.4942 3.19294 47.3723 3.16114C47.3517 3.16114 47.2782 3.146 47.1519 3.1142C47.024 3.0824 46.8801 3.04605 46.717 3.00365C46.5539 2.96125 46.404 2.92491 46.2674 2.8931C46.1307 2.8613 46.047 2.8401 46.0161 2.8295C45.8839 2.7977 45.8149 2.72804 45.8105 2.61749C45.8046 2.50695 45.8795 2.43123 46.0308 2.39034C46.4275 2.29646 46.8566 2.16774 47.3194 2.0057C47.7822 1.84367 48.2465 1.66043 48.7137 1.456C49.1809 1.25156 49.6334 1.03198 50.0698 0.795747C50.5062 0.559511 50.8984 0.32176 51.2437 0.08098C51.3348 0.0188922 51.4288 -0.0083659 51.5258 0.00223446C51.6228 0.0128348 51.6713 0.0915804 51.6713 0.238471V21.0273H51.6698Z" fill="#486642"/>
<path d="M59.0468 15.2448C58.8837 15.2448 58.8029 15.3342 58.8029 15.5113C58.8029 16.5805 58.894 17.4966 59.0777 18.2614C59.2598 19.0261 59.5272 19.6515 59.8784 20.1392C60.2295 20.6268 60.6659 20.9857 61.189 21.2158C61.712 21.446 62.3188 21.5611 63.0108 21.5611C63.5397 21.5611 64.0099 21.5036 64.4213 21.3885C64.8327 21.2734 65.1912 21.1401 65.4953 20.9872C65.8009 20.8357 66.0492 20.6919 66.2417 20.5556C66.4342 20.4193 66.5767 20.33 66.6692 20.2891C66.8117 20.227 66.9234 20.2391 67.0042 20.3284C67.085 20.4178 67.085 20.5511 67.0042 20.7297C66.9734 20.7918 66.9058 20.916 66.7985 21.0992C66.6913 21.2825 66.537 21.4945 66.3342 21.7353C66.1315 21.976 65.8773 22.2274 65.5717 22.4894C65.2676 22.7514 64.9032 22.9922 64.4815 23.2117C64.0599 23.4313 63.5765 23.613 63.0329 23.7539C62.4892 23.8947 61.8824 23.9659 61.211 23.9659C60.1943 23.9659 59.2745 23.8008 58.4518 23.4707C57.629 23.1406 56.9252 22.662 56.3405 22.0336C55.7557 21.4051 55.3032 20.6404 54.9843 19.7394C54.6641 18.8383 54.5039 17.8222 54.5039 16.691C54.5039 15.4553 54.7023 14.3604 55.0989 13.4064C55.4956 12.4539 56.0143 11.6543 56.6534 11.0107C57.294 10.3671 58.0198 9.87649 58.8338 9.54182C59.6463 9.20715 60.4749 9.03906 61.3183 9.03906C62.1116 9.03906 62.8095 9.15112 63.4149 9.37676C64.0187 9.6024 64.5432 9.89466 64.9855 10.2566C65.4277 10.6185 65.7936 11.0213 66.083 11.4665C66.3724 11.9118 66.6061 12.3539 66.7838 12.7946C66.9616 13.2353 67.0865 13.6487 67.157 14.0364C67.2275 14.424 67.2643 14.733 67.2643 14.9632C67.2643 15.0676 67.2305 15.1418 67.1658 15.1827C67.0997 15.2251 67.0101 15.2463 66.8984 15.2463H59.0468V15.2448ZM58.8793 14.2075C58.8587 14.3438 58.9204 14.4119 59.063 14.4119C59.0938 14.4119 59.1952 14.4089 59.3671 14.4044C59.5405 14.3998 59.7506 14.3907 60.0003 14.3801C60.2486 14.3695 60.516 14.3589 60.8011 14.3483C61.0861 14.3377 61.3579 14.3271 61.6165 14.3165C61.8751 14.3059 62.0984 14.2984 62.288 14.2923C62.476 14.2878 62.595 14.2787 62.6465 14.2681C62.8095 14.2575 62.98 14.1848 63.1577 14.0485C63.3355 13.9122 63.4251 13.6775 63.4251 13.3413C63.4251 13.0369 63.384 12.6871 63.3032 12.2888C63.2224 11.8906 63.0916 11.5135 62.9138 11.1576C62.7361 10.8018 62.5098 10.5004 62.2351 10.2536C61.9603 10.0082 61.6253 9.88406 61.2286 9.88406C60.9142 9.88406 60.6395 9.97038 60.4059 10.143C60.1722 10.3156 59.971 10.5413 59.8035 10.8184C59.636 11.0955 59.4964 11.4029 59.3847 11.7376C59.2731 12.0723 59.182 12.4009 59.11 12.7189C59.038 13.0384 58.9851 13.3322 58.9498 13.5987C58.9131 13.8698 58.8896 14.0712 58.8793 14.2075Z" fill="#486642"/>
<path d="M81.8067 22.126C81.9492 22.0942 82.0609 22.1229 82.1417 22.2123C82.2225 22.3016 82.2284 22.4197 82.1564 22.5651C82.0947 22.6802 81.9962 22.8165 81.8596 22.974C81.723 23.1315 81.5393 23.2784 81.3101 23.4132C81.0809 23.5494 80.8017 23.6645 80.4712 23.7584C80.1406 23.8523 79.7527 23.8993 79.3046 23.8993C78.6846 23.8993 78.163 23.7705 77.7413 23.5146C77.3196 23.2587 77.0273 22.9619 76.8642 22.6272C76.823 22.5439 76.7657 22.5076 76.6893 22.5167C76.6129 22.5273 76.5497 22.5591 76.4983 22.6106C76.4675 22.6424 76.3734 22.7287 76.2162 22.8695C76.059 23.0103 75.8357 23.1633 75.5448 23.3253C75.2553 23.4874 74.9071 23.6342 74.5002 23.7645C74.0932 23.8947 73.626 23.9613 73.097 23.9613C72.192 23.9613 71.4324 23.8296 70.8182 23.5691C70.2026 23.3071 69.7045 22.9695 69.324 22.556C68.9435 22.1426 68.6687 21.6762 68.5012 21.1583C68.3337 20.6404 68.25 20.124 68.25 19.6107C68.25 18.7838 68.4763 18.06 68.9288 17.4421C69.3813 16.8243 69.9675 16.3639 70.6889 16.0595C71.0754 15.902 71.4794 15.79 71.9011 15.7218C72.3227 15.6537 72.7415 15.5825 73.1587 15.5098C73.576 15.4371 73.9845 15.3448 74.3856 15.2342C74.7867 15.1237 75.1657 14.9435 75.5213 14.6921C75.8974 14.4301 76.1589 14.0954 76.3059 13.6866C76.4528 13.2777 76.5262 12.8431 76.5262 12.3827C76.5262 12.0481 76.4822 11.7255 76.3969 11.4166C76.3103 11.1076 76.1883 10.8381 76.0311 10.6079C75.8739 10.3777 75.6902 10.1945 75.4816 10.0582C75.273 9.92192 75.0467 9.85378 74.8028 9.85378C74.3665 9.85378 74.0462 9.96887 73.8419 10.199C73.6392 10.4292 73.479 10.7079 73.3615 11.0319C73.244 11.356 73.1352 11.6952 73.0339 12.045C72.9325 12.3963 72.7694 12.6977 72.5461 12.9491C72.3624 13.149 72.1273 13.2974 71.8364 13.3973C71.547 13.4973 71.2693 13.5472 71.0048 13.5472C70.7301 13.5472 70.4862 13.5003 70.2731 13.4064C70.0601 13.3125 69.8765 13.1838 69.7237 13.0218C69.5708 12.8597 69.4562 12.6704 69.3813 12.4554C69.3049 12.2404 69.2667 12.0132 69.2667 11.7724C69.2667 11.4484 69.3431 11.1228 69.4959 10.7987C69.6487 10.4747 69.9205 10.1809 70.3113 9.91889C70.7022 9.65691 71.2282 9.44491 71.8893 9.28287C72.5505 9.12084 73.3879 9.03906 74.4047 9.03906C75.533 9.03906 76.4954 9.15718 77.2932 9.3919C78.091 9.62814 78.7419 9.97038 79.2443 10.4217C79.7468 10.8729 80.1127 11.4302 80.3419 12.095C80.5711 12.7598 80.6842 13.517 80.6842 14.365C80.6842 15.3811 80.6533 16.3351 80.5931 17.2256C80.5314 18.116 80.4888 18.905 80.4638 19.591C80.4388 20.277 80.4506 20.8433 80.502 21.2885C80.5534 21.7338 80.6945 22.0094 80.9296 22.1139C81.0309 22.1669 81.1588 22.1896 81.3101 22.185C81.4717 22.1759 81.6348 22.1578 81.8067 22.126ZM76.5174 15.1025C76.5174 15.0404 76.4924 14.998 76.441 14.9768C76.3896 14.9556 76.3441 14.9722 76.3044 15.0237C76.2236 15.1176 76.1486 15.207 76.084 15.2902C76.0179 15.3735 75.9283 15.4735 75.8166 15.5886C75.6227 15.7976 75.4258 15.9944 75.2216 16.1776C75.0188 16.3609 74.8146 16.5471 74.6118 16.7349C74.4091 16.903 74.2078 17.0696 74.0094 17.2377C73.8111 17.4058 73.626 17.589 73.4526 17.7874C73.1881 18.1024 72.9927 18.4446 72.8649 18.8171C72.7371 19.1897 72.6739 19.5849 72.6739 20.0029C72.6739 20.286 72.715 20.5707 72.7958 20.86C72.8766 21.1477 73.0015 21.4051 73.169 21.6293C73.3365 21.8549 73.5496 22.0381 73.8096 22.179C74.0682 22.3198 74.3812 22.391 74.747 22.391C75.1128 22.391 75.4096 22.3122 75.6388 22.1547C75.868 21.9972 76.0458 21.8095 76.1722 21.5884C76.2985 21.3688 76.3881 21.1462 76.4396 20.9206C76.491 20.6949 76.516 20.5193 76.516 20.3936V15.1025H76.5174Z" fill="#486642"/>
<path d="M99.9961 23.1173C100.077 23.1385 100.136 23.1718 100.171 23.2188C100.206 23.2657 100.219 23.3157 100.209 23.3687C100.199 23.4217 100.171 23.4686 100.125 23.5095C100.08 23.5519 100.017 23.5716 99.9344 23.5716H98.1654H98.0288H94.1867H94.0501H92.2826C92.2018 23.5716 92.1371 23.5504 92.0916 23.5095C92.046 23.4671 92.0181 23.4202 92.0078 23.3687C91.9975 23.3157 92.0108 23.2672 92.046 23.2188C92.0813 23.1718 92.1401 23.137 92.2209 23.1173C92.3017 23.1067 92.4413 23.0734 92.6396 23.0159C92.838 22.9583 93.0407 22.8584 93.2493 22.7175C93.458 22.5767 93.6431 22.3768 93.8062 22.1209C93.9693 21.865 94.0501 21.5258 94.0501 21.1078V15.3412V15.2155V14.3357C94.0398 13.895 94.0075 13.4422 93.9516 12.9758C93.8958 12.5094 93.7783 12.0854 93.6005 11.7038C93.4227 11.3222 93.1641 11.0072 92.8233 10.7603C92.4824 10.515 92.0284 10.3908 91.4583 10.3908C90.8692 10.3908 90.4108 10.512 90.0861 10.7528C89.7614 10.9935 89.5189 11.2919 89.3617 11.6477C89.2045 12.0036 89.1075 12.3837 89.0723 12.7865C89.037 13.1893 89.0194 13.5482 89.0194 13.8632V21.1078C89.0194 21.5273 89.1002 21.865 89.2633 22.1209C89.4264 22.3783 89.6115 22.5767 89.8201 22.7175C90.0288 22.8584 90.2315 22.9583 90.4299 23.0159C90.6282 23.0734 90.7678 23.1082 90.8486 23.1173C90.9294 23.1385 90.9882 23.1718 91.0234 23.2188C91.0587 23.2657 91.0719 23.3157 91.0616 23.3687C91.0514 23.4217 91.0234 23.4686 90.9779 23.5095C90.9323 23.5519 90.8692 23.5716 90.7869 23.5716H83.1336C83.0528 23.5716 82.9882 23.5504 82.9426 23.5095C82.8971 23.4671 82.8691 23.4202 82.8589 23.3687C82.8486 23.3157 82.8618 23.2672 82.8971 23.2188C82.9323 23.1718 82.9911 23.137 83.0719 23.1173C83.1527 23.1067 83.2923 23.0734 83.4906 23.0159C83.689 22.9583 83.8917 22.8584 84.1004 22.7175C84.309 22.5767 84.4941 22.3768 84.6572 22.1209C84.8203 21.865 84.9011 21.5258 84.9011 21.1078V12.3701C84.9011 12.2338 84.8394 12.1505 84.7174 12.1187C84.6969 12.1187 84.6234 12.1035 84.4971 12.0717C84.3692 12.0399 84.2253 12.0036 84.0622 11.9612C83.8991 11.9188 83.7492 11.8825 83.6126 11.8507C83.4759 11.8189 83.3922 11.7977 83.3613 11.7886C83.2291 11.7568 83.16 11.6871 83.1556 11.5766C83.1498 11.466 83.2247 11.3903 83.376 11.3494C83.7727 11.2555 84.2017 11.1268 84.6646 10.9648C85.1274 10.8027 85.5916 10.6195 86.0589 10.4151C86.5261 10.2106 86.9786 9.99105 87.4164 9.75481C87.8528 9.51858 88.2451 9.28082 88.5904 9.04004C88.6815 8.97644 88.7755 8.9507 88.8725 8.9613C88.9694 8.9719 89.0179 9.05064 89.0179 9.19754V10.5483C89.231 10.3499 89.4749 10.1576 89.7496 9.97439C90.0244 9.79116 90.3314 9.63215 90.6723 9.49586C91.0132 9.35957 91.3937 9.25054 91.8154 9.16573C92.237 9.08245 92.7013 9.04004 93.2097 9.04004C94.0427 9.04004 94.7421 9.13393 95.3063 9.32323C95.8705 9.51252 96.3377 9.7639 96.7094 10.0774C97.0797 10.3923 97.3647 10.7528 97.563 11.1616C97.7614 11.5705 97.9039 11.9945 97.9906 12.4337C98.0773 12.8743 98.1272 13.3105 98.1434 13.7451C98.1581 14.1797 98.1669 14.5855 98.1669 14.9626V15.0414V21.1063C98.1669 21.5258 98.2477 21.8635 98.4108 22.1194C98.5739 22.3768 98.759 22.5752 98.9676 22.716C99.1763 22.8569 99.379 22.9568 99.5774 23.0143C99.7757 23.0734 99.9153 23.1067 99.9961 23.1173Z" fill="#486642"/>
<path d="M105.101 15.2448C104.938 15.2448 104.858 15.3342 104.858 15.5113C104.858 16.5805 104.949 17.4966 105.132 18.2614C105.315 19.0261 105.582 19.6515 105.933 20.1392C106.284 20.6268 106.721 20.9857 107.244 21.2158C107.767 21.446 108.373 21.5611 109.066 21.5611C109.594 21.5611 110.065 21.5036 110.476 21.3885C110.887 21.2734 111.246 21.1401 111.55 20.9872C111.856 20.8357 112.104 20.6919 112.296 20.5556C112.489 20.4193 112.631 20.33 112.724 20.2891C112.866 20.227 112.978 20.2391 113.059 20.3284C113.14 20.4178 113.14 20.5511 113.059 20.7297C113.028 20.7918 112.96 20.916 112.853 21.0992C112.746 21.2825 112.592 21.4945 112.389 21.7353C112.186 21.976 111.932 22.2274 111.626 22.4894C111.321 22.7514 110.958 22.9922 110.536 23.2117C110.115 23.4313 109.631 23.613 109.088 23.7539C108.544 23.8947 107.937 23.9659 107.266 23.9659C106.249 23.9659 105.329 23.8008 104.506 23.4707C103.684 23.1406 102.98 22.662 102.395 22.0336C101.81 21.4051 101.358 20.6404 101.039 19.7394C100.719 18.8383 100.559 17.8222 100.559 16.691C100.559 15.4553 100.757 14.3604 101.154 13.4064C101.55 12.4539 102.069 11.6543 102.708 11.0107C103.349 10.3671 104.074 9.87649 104.888 9.54182C105.701 9.20715 106.53 9.03906 107.373 9.03906C108.166 9.03906 108.864 9.15112 109.47 9.37676C110.073 9.6024 110.598 9.89466 111.04 10.2566C111.482 10.6185 111.848 11.0213 112.138 11.4665C112.427 11.9118 112.661 12.3539 112.839 12.7946C113.016 13.2353 113.141 13.6487 113.212 14.0364C113.282 14.424 113.319 14.733 113.319 14.9632C113.319 15.0676 113.285 15.1418 113.221 15.1827C113.154 15.2251 113.065 15.2463 112.953 15.2463H105.101V15.2448ZM104.934 14.2075C104.913 14.3438 104.975 14.4119 105.118 14.4119C105.149 14.4119 105.25 14.4089 105.423 14.4044C105.597 14.3998 105.807 14.3907 106.056 14.3801C106.305 14.3695 106.572 14.3589 106.857 14.3483C107.142 14.3377 107.414 14.3271 107.673 14.3165C107.931 14.3059 108.155 14.2984 108.344 14.2923C108.532 14.2878 108.651 14.2787 108.703 14.2681C108.866 14.2575 109.036 14.1848 109.214 14.0485C109.392 13.9122 109.481 13.6775 109.481 13.3413C109.481 13.0369 109.44 12.6871 109.359 12.2888C109.279 11.8906 109.148 11.5135 108.97 11.1576C108.792 10.8018 108.566 10.5004 108.291 10.2536C108.016 10.0082 107.681 9.88406 107.285 9.88406C106.97 9.88406 106.696 9.97038 106.462 10.143C106.228 10.3156 106.027 10.5413 105.86 10.8184C105.692 11.0955 105.553 11.4029 105.441 11.7376C105.329 12.0723 105.238 12.4009 105.166 12.7189C105.094 13.0384 105.041 13.3322 105.006 13.5987C104.968 13.8698 104.944 14.0712 104.934 14.2075Z" fill="#486642"/>
<path d="M123.855 9.03853C124.283 9.03853 124.643 9.09305 124.938 9.20359C125.233 9.31414 125.471 9.46103 125.655 9.64426C125.837 9.8275 125.97 10.0425 126.052 10.2879C126.133 10.5347 126.174 10.7936 126.174 11.0662C126.174 11.569 126.018 11.9612 125.71 12.2444C125.4 12.5276 124.985 12.6684 124.467 12.6684C124.07 12.6684 123.76 12.5957 123.537 12.4488C123.313 12.3019 123.122 12.1429 122.965 11.9703C122.808 11.7977 122.662 11.6386 122.53 11.4918C122.398 11.3449 122.235 11.2722 122.042 11.2722C121.869 11.2722 121.684 11.3328 121.485 11.4524C121.287 11.5735 121.105 11.8007 120.936 12.1353C120.768 12.47 120.629 12.9319 120.517 13.5179C120.406 14.104 120.35 14.8642 120.35 15.797V21.2335C120.35 21.653 120.419 21.9831 120.555 22.2239C120.692 22.4646 120.851 22.6479 121.029 22.7736C121.206 22.8993 121.381 22.9856 121.555 23.0325C121.728 23.0795 121.854 23.1082 121.935 23.1188C122.016 23.14 122.075 23.1734 122.11 23.2203C122.145 23.2672 122.158 23.3172 122.148 23.3702C122.138 23.4232 122.11 23.4702 122.064 23.5111C122.019 23.5535 121.956 23.5731 121.873 23.5731H120.348H120.212H116.37H116.233H114.708C114.627 23.5731 114.562 23.5519 114.517 23.5111C114.471 23.4686 114.443 23.4217 114.433 23.3702C114.423 23.3172 114.436 23.2688 114.471 23.2203C114.507 23.1734 114.565 23.1385 114.646 23.1188C114.727 23.1082 114.855 23.0795 115.027 23.0325C115.2 22.9856 115.375 22.8993 115.553 22.7736C115.73 22.6479 115.888 22.4646 116.026 22.2239C116.162 21.9831 116.231 21.653 116.231 21.2335V12.3701C116.231 12.2338 116.171 12.1505 116.049 12.1187C116.029 12.1187 115.955 12.1035 115.829 12.0717C115.701 12.0399 115.557 12.0036 115.394 11.9612C115.231 11.9188 115.081 11.8825 114.944 11.8507C114.808 11.8189 114.724 11.7977 114.693 11.7886C114.561 11.7568 114.492 11.6871 114.487 11.5766C114.482 11.466 114.556 11.3903 114.708 11.3494C115.105 11.2555 115.534 11.1268 115.996 10.9648C116.459 10.8027 116.923 10.6195 117.391 10.4151C117.858 10.2106 118.31 9.99105 118.747 9.75481C119.183 9.51858 119.575 9.28082 119.921 9.04004C120.012 8.97644 120.106 8.9507 120.203 8.9613C120.3 8.9719 120.348 9.05064 120.348 9.19754V11.4448C120.704 10.6377 121.187 10.0365 121.797 9.63821C122.407 9.23691 123.093 9.03853 123.855 9.03853Z" fill="#486642"/>
<path d="M132.285 21.1052C132.285 21.5246 132.366 21.8623 132.529 22.1183C132.692 22.3757 132.877 22.5741 133.086 22.7149C133.294 22.8557 133.497 22.9557 133.695 23.0132C133.894 23.0708 134.033 23.1056 134.114 23.1147C134.195 23.1359 134.254 23.1692 134.289 23.2162C134.324 23.2631 134.338 23.3131 134.327 23.3661C134.317 23.4191 134.289 23.466 134.244 23.5069C134.198 23.5493 134.135 23.569 134.053 23.569H126.399C126.318 23.569 126.254 23.5478 126.208 23.5069C126.163 23.4645 126.135 23.4176 126.124 23.3661C126.114 23.3131 126.127 23.2646 126.163 23.2162C126.198 23.1692 126.257 23.1344 126.338 23.1147C126.418 23.1041 126.558 23.0708 126.756 23.0132C126.955 22.9557 127.157 22.8557 127.366 22.7149C127.575 22.5741 127.76 22.3742 127.923 22.1183C128.086 21.8623 128.167 21.5231 128.167 21.1052V12.369C128.167 12.2327 128.105 12.1494 127.983 12.1176C127.963 12.1176 127.889 12.1024 127.763 12.0706C127.635 12.0388 127.491 12.0025 127.328 11.9601C127.165 11.9177 127.015 11.8813 126.878 11.8495C126.742 11.8177 126.658 11.7965 126.627 11.7875C126.495 11.7557 126.426 11.686 126.421 11.5754C126.415 11.4649 126.49 11.3892 126.642 11.3483C127.038 11.2544 127.467 11.1257 127.93 10.9637C128.393 10.8016 128.857 10.6184 129.324 10.414C129.792 10.2095 130.244 9.98994 130.682 9.7537C131.118 9.51747 131.511 9.27971 131.856 9.03893C131.947 8.97533 132.041 8.94959 132.138 8.96019C132.235 8.97079 132.284 9.04953 132.284 9.19643V21.1052H132.285ZM132.407 3.41166C132.285 3.10727 132.115 2.84378 131.896 2.61814C131.677 2.39251 131.418 2.21533 131.118 2.08358C130.819 1.95335 130.485 1.88672 130.119 1.88672C129.764 1.88672 129.427 1.95486 129.113 2.09115C128.797 2.22744 128.525 2.41068 128.297 2.64086C128.068 2.87104 127.888 3.14059 127.757 3.44951C127.625 3.75844 127.558 4.08554 127.558 4.43232C127.558 4.7791 127.619 5.10317 127.741 5.40604C127.863 5.71042 128.033 5.9724 128.252 6.19198C128.471 6.41156 128.729 6.58722 129.029 6.71897C129.329 6.85072 129.657 6.91583 130.012 6.91583C130.378 6.91583 130.716 6.84769 131.026 6.7114C131.336 6.57511 131.608 6.3949 131.841 6.16927C132.075 5.94363 132.259 5.67711 132.391 5.36818C132.523 5.05926 132.589 4.73216 132.589 4.38538C132.589 4.03859 132.529 3.71604 132.407 3.41166Z" fill="#486642"/>
<path d="M151.876 23.1173C151.957 23.1385 152.016 23.1718 152.051 23.2188C152.087 23.2657 152.1 23.3157 152.09 23.3687C152.079 23.4217 152.051 23.4686 152.006 23.5095C151.96 23.5519 151.897 23.5716 151.815 23.5716H150.046H149.909H146.067H145.93H144.161C144.081 23.5716 144.016 23.5504 143.97 23.5095C143.925 23.4671 143.897 23.4202 143.887 23.3687C143.876 23.3157 143.89 23.2672 143.925 23.2188C143.96 23.1718 144.019 23.137 144.1 23.1173C144.181 23.1067 144.32 23.0734 144.519 23.0159C144.717 22.9583 144.92 22.8584 145.128 22.7175C145.337 22.5767 145.522 22.3768 145.685 22.1209C145.848 21.865 145.929 21.5258 145.929 21.1078V15.3412V15.2155V14.3357C145.919 13.895 145.886 13.4422 145.831 12.9758C145.775 12.5094 145.657 12.0854 145.479 11.7038C145.302 11.3222 145.043 11.0072 144.702 10.7603C144.361 10.515 143.907 10.3908 143.337 10.3908C142.748 10.3908 142.29 10.512 141.965 10.7528C141.64 10.9935 141.398 11.2919 141.241 11.6477C141.083 12.0036 140.986 12.3837 140.951 12.7865C140.916 13.1893 140.898 13.5482 140.898 13.8632V21.1078C140.898 21.5273 140.979 21.865 141.142 22.1209C141.305 22.3783 141.49 22.5767 141.699 22.7175C141.908 22.8584 142.11 22.9583 142.309 23.0159C142.507 23.0734 142.647 23.1082 142.728 23.1173C142.808 23.1385 142.867 23.1718 142.902 23.2188C142.938 23.2657 142.951 23.3157 142.941 23.3687C142.93 23.4217 142.902 23.4686 142.857 23.5095C142.811 23.5519 142.748 23.5716 142.666 23.5716H135.013C134.932 23.5716 134.867 23.5504 134.822 23.5095C134.776 23.4671 134.748 23.4202 134.738 23.3687C134.727 23.3157 134.741 23.2672 134.776 23.2188C134.811 23.1718 134.87 23.137 134.951 23.1173C135.032 23.1067 135.171 23.0734 135.37 23.0159C135.568 22.9583 135.771 22.8584 135.979 22.7175C136.188 22.5767 136.373 22.3768 136.536 22.1209C136.699 21.865 136.78 21.5258 136.78 21.1078V12.3701C136.78 12.2338 136.718 12.1505 136.596 12.1187C136.576 12.1187 136.502 12.1035 136.376 12.0717C136.248 12.0399 136.104 12.0036 135.941 11.9612C135.778 11.9188 135.628 11.8825 135.491 11.8507C135.355 11.8189 135.271 11.7977 135.24 11.7886C135.108 11.7568 135.039 11.6871 135.035 11.5766C135.029 11.466 135.104 11.3903 135.255 11.3494C135.652 11.2555 136.081 11.1268 136.543 10.9648C137.006 10.8027 137.471 10.6195 137.938 10.4151C138.405 10.2106 138.858 9.99105 139.295 9.75481C139.732 9.51858 140.124 9.28082 140.469 9.04004C140.56 8.97644 140.654 8.9507 140.751 8.9613C140.848 8.9719 140.897 9.05064 140.897 9.19754V10.5483C141.11 10.3499 141.354 10.1576 141.629 9.97439C141.903 9.79116 142.21 9.63215 142.551 9.49586C142.892 9.35957 143.273 9.25054 143.694 9.16573C144.116 9.08245 144.58 9.04004 145.089 9.04004C145.922 9.04004 146.621 9.13393 147.185 9.32323C147.749 9.51252 148.217 9.7639 148.588 10.0774C148.959 10.3923 149.244 10.7528 149.442 11.1616C149.64 11.5705 149.783 11.9945 149.869 12.4337C149.956 12.8743 150.006 13.3105 150.022 13.7451C150.037 14.1797 150.046 14.5855 150.046 14.9626V15.0414V21.1063C150.046 21.5258 150.127 21.8635 150.29 22.1194C150.453 22.3768 150.638 22.5752 150.847 22.716C151.055 22.8569 151.258 22.9568 151.456 23.0143C151.655 23.0734 151.794 23.1067 151.876 23.1173Z" fill="#486642"/>
<path d="M159.834 9.03906C160.88 9.03906 161.844 9.22987 162.723 9.613C163.602 9.99612 164.357 10.5186 164.987 11.1849C165.617 11.8497 166.11 12.6326 166.467 13.5336C166.822 14.4346 167 15.3978 167 16.4245C167 17.4618 166.806 18.4355 166.421 19.3472C166.035 20.2588 165.506 21.0568 164.836 21.7428C164.164 22.4288 163.374 22.971 162.464 23.3692C161.555 23.7675 160.576 23.9659 159.529 23.9659C158.481 23.9659 157.519 23.7751 156.64 23.392C155.762 23.0103 155.006 22.4864 154.376 21.8201C153.746 21.1553 153.254 20.3739 152.897 19.4789C152.541 18.5839 152.363 17.6163 152.363 16.5805C152.363 15.5537 152.556 14.5831 152.942 13.6654C153.329 12.7492 153.857 11.9481 154.527 11.2606C155.199 10.5746 155.988 10.0325 156.899 9.6342C157.81 9.23744 158.788 9.03906 159.834 9.03906ZM159.683 23.1345C160.171 23.1345 160.595 22.9619 160.955 22.6166C161.315 22.2713 161.617 21.7974 161.855 21.1946C162.094 20.5919 162.273 19.8878 162.395 19.0806C162.517 18.2735 162.577 17.4149 162.577 16.5032C162.577 15.5916 162.517 14.733 162.395 13.9258C162.273 13.1187 162.093 12.4145 161.855 11.8118C161.615 11.2091 161.315 10.7351 160.955 10.3899C160.594 10.0446 160.171 9.87195 159.683 9.87195C159.195 9.87195 158.771 10.0446 158.411 10.3899C158.049 10.7351 157.748 11.2091 157.504 11.8118C157.26 12.4145 157.08 13.1187 156.963 13.9258C156.846 14.733 156.789 15.5916 156.789 16.5032C156.789 17.4149 156.847 18.2735 156.963 19.0806C157.08 19.8878 157.26 20.5919 157.504 21.1946C157.748 21.7974 158.051 22.2713 158.411 22.6166C158.771 22.9604 159.195 23.1345 159.683 23.1345Z" fill="#486642"/>
<path d="M25.6219 25.7602C25.5558 25.527 25.5058 25.3634 25.4779 25.2771C25.4632 25.2317 25.4559 25.2074 25.4559 25.2074C25.1253 24.1974 24.6654 23.2418 24.0733 22.3453C22.7466 20.3328 20.9923 18.8502 18.8134 17.9068C17.4132 17.3011 15.9514 16.9937 14.4366 16.9906C9.96713 16.98 5.49769 16.9861 1.02972 16.9861C0.740284 16.9861 0.450843 16.9891 0.161402 16.9861C0.0438629 16.9846 -0.0090298 17.0376 0.0012549 17.1557C0.0115396 17.289 0.0291705 17.4207 0.0335782 17.554C0.0556169 18.3172 0.168749 19.0683 0.347996 19.8073C0.788769 21.623 1.57922 23.2282 2.71054 24.6274C4.08575 26.1115 6.128 27.3472 8.07181 27.7818C10.0053 28.2149 11.9962 28.2619 13.9723 28.3436C13.9899 28.3436 14.0075 28.3451 14.0266 28.3451C15.8661 28.4209 18.286 28.5996 20.6235 29.0145C22.8744 29.4143 25.0504 30.0351 26.5563 30.9983C26.3595 28.6192 25.8776 26.6703 25.6219 25.7602Z" fill="#486642"/>
<path d="M11.5317 29.0167C11.5378 29.0152 11.5423 29.0152 11.5484 29.0137C11.5393 29.0152 11.5302 29.0152 11.5195 29.0167C11.5241 29.0167 11.5286 29.0167 11.5317 29.0167Z" fill="#486642"/>
<path d="M12.4677 28.9206C12.4753 28.919 12.4829 28.9175 12.4904 28.916C12.4798 28.9175 12.4692 28.9175 12.457 28.919C12.4616 28.9206 12.4646 28.9206 12.4677 28.9206Z" fill="#486642"/>
<path d="M11.5039 29.0171C11.5099 29.0156 11.5174 29.0156 11.5233 29.0156C11.5204 29.0156 11.5174 29.0156 11.5129 29.0156L11.5039 29.0171Z" fill="#486642"/>
<path d="M25.6219 6.14825C25.5558 6.38146 25.5058 6.545 25.4779 6.63132C25.4632 6.67675 25.4559 6.70098 25.4559 6.70098C25.1253 7.71104 24.6654 8.66659 24.0733 9.56308C22.7466 11.5756 20.9923 13.0582 18.8134 14.0016C17.4132 14.6073 15.9514 14.9147 14.4366 14.9178C9.96713 14.9284 5.49769 14.9223 1.02972 14.9223C0.740284 14.9223 0.450843 14.9193 0.161402 14.9223C0.0438629 14.9238 -0.0090298 14.8708 0.0012549 14.7527C0.0115396 14.6195 0.0291705 14.4877 0.0335782 14.3544C0.0556169 13.5912 0.168749 12.8401 0.347996 12.1011C0.788769 10.2854 1.57922 8.68022 2.71054 7.28097C4.08575 5.79692 6.128 4.56122 8.07181 4.12661C10.0053 3.69351 11.9962 3.64656 13.9723 3.56479C13.9899 3.56479 14.0075 3.56328 14.0266 3.56328C15.8661 3.48756 18.286 3.30887 20.6235 2.89394C22.8744 2.49415 25.0504 1.87327 26.5563 0.910156C26.3595 3.29069 25.8776 5.23965 25.6219 6.14825Z" fill="#486642"/>
<path d="M11.5317 2.89453C11.5378 2.89605 11.5423 2.89605 11.5484 2.89756C11.5393 2.89605 11.5302 2.89605 11.5195 2.89453C11.5241 2.89453 11.5286 2.89453 11.5317 2.89453Z" fill="#486642"/>
<path d="M12.4677 2.98828C12.4753 2.9898 12.4829 2.99131 12.4904 2.99282C12.4798 2.99131 12.4692 2.99131 12.457 2.9898C12.4616 2.9898 12.4646 2.98828 12.4677 2.98828Z" fill="#486642"/>
<path d="M11.5039 2.89062C11.5099 2.89214 11.5174 2.89214 11.5233 2.89214C11.5204 2.89214 11.5174 2.89214 11.5129 2.89214L11.5039 2.89062Z" fill="#486642"/>
</g>
<defs>
<clipPath id="clip0_4547_12494">
<rect width="167" height="31" fill="white"/>
</clipPath>
</defs>
</svg>
