<svg width="151" height="25" viewBox="0 0 151 25" fill="none" xmlns="http://www.w3.org/2000/svg">
<g id="logo-inline">
<path id="logo-inline/lg" fill-rule="evenodd" clip-rule="evenodd" d="M23.8423 0.850586H10.7281C4.82795 0.850586 0 5.67853 0 11.5787H13.1142C19.0143 11.5787 23.8423 6.75072 23.8423 0.850586ZM23.8423 24.6928H10.7281C4.82795 24.6928 0 19.8649 0 13.9648H13.1142C19.0143 13.9648 23.8423 18.7927 23.8423 24.6928ZM44.1081 14.6594C43.4059 17.9071 40.8541 19.9699 37.3744 19.9699C33.3429 19.9699 30.4651 17.1485 30.4651 12.9101C30.4651 8.67178 33.3492 5.8504 37.3744 5.8504C40.8603 5.8504 43.4059 7.91314 44.1081 11.1609H41.2679C40.6597 9.41161 39.3368 8.32067 37.3744 8.32067C34.8477 8.32067 33.1548 10.1514 33.1548 12.9101C33.1548 15.6688 34.8477 17.4996 37.3744 17.4996C39.3431 17.4996 40.666 16.4086 41.2679 14.6594H44.1081ZM52.2462 19.7191H50.7916C48.6913 19.7191 47.8135 18.8413 47.8135 16.7409V6.10118H50.3402V16.5278C50.3402 17.1297 50.5534 17.3428 51.1553 17.3428H52.2462V19.7191ZM64.8358 16.7597C64.1963 18.509 62.5035 19.9699 60.052 19.9699V19.9636C57.193 19.9636 54.9359 17.9197 54.9359 14.8099C54.9359 11.7001 57.2056 9.63732 60.052 9.63732C62.8985 9.63732 65.0553 11.5998 65.0553 14.7158C65.0553 15.1233 65.0177 15.65 65.0177 15.65H57.5253C57.7573 17.0294 58.7291 17.9071 60.052 17.9071C60.9862 17.9071 61.7637 17.4808 62.19 16.7597H64.8358ZM60.052 11.7001C58.8106 11.7001 57.8576 12.4775 57.5629 13.744H62.4659C62.19 12.5966 61.4126 11.7001 60.052 11.7001ZM74.6104 18.5278C73.8329 19.4056 72.7044 19.9699 71.2247 19.9699V19.9761C69.9206 19.9761 68.0334 19.5498 68.0334 17.2739C68.0334 15.1672 69.7074 14.5653 71.1683 14.1578L74.6104 13.2236V13.0669C74.6104 12.1139 73.8079 11.7063 72.974 11.7063C72.021 11.7063 71.2059 12.2079 71.068 13.0857H68.4598C68.6917 10.6969 70.5789 9.64359 72.974 9.64359C74.8612 9.64359 77.0807 10.3082 77.0807 13.1672V16.9228C77.0807 17.2676 77.2186 17.3867 77.5697 17.3867H78.1716V19.7191H76.0524C75.3502 19.7191 74.9427 19.4244 74.7859 18.8601L74.6856 18.5278H74.6104ZM70.5664 17.0293C70.5664 17.8068 71.2498 17.9823 71.8893 17.9823H71.8956C73.4129 17.9823 74.6166 17.067 74.6166 15.4745V15.1798L71.6761 15.976C70.9363 16.1704 70.5664 16.4839 70.5664 17.0293ZM84.1717 19.7128H81.6199V9.89438H84.1717V11.0794H84.247C84.9304 10.3207 85.9774 9.63732 87.4383 9.63732C89.5198 9.63732 91.2503 10.9979 91.2503 13.8004V19.7128H88.7236V14.2268C88.7236 12.5151 87.5762 11.9697 86.6044 11.9697C85.3379 11.9697 84.1717 12.8662 84.1717 14.7722V19.7128ZM104.699 16.7535C104.059 18.5027 102.367 19.9636 99.9151 19.9636V19.9573C97.0561 19.9573 94.799 17.9134 94.799 14.8036C94.799 11.6938 97.0686 9.63105 99.9151 9.63105C102.762 9.63105 104.918 11.5935 104.918 14.7095C104.918 15.1171 104.881 15.6437 104.881 15.6437H97.3884C97.6203 17.0231 98.5921 17.9008 99.9151 17.9008C100.849 17.9008 101.627 17.4745 102.053 16.7535H104.699ZM99.9151 11.6938C98.6737 11.6938 97.7207 12.4712 97.426 13.7377H102.329C102.053 12.5904 101.276 11.6938 99.9151 11.6938ZM111.088 19.7128H108.542V9.88811H111.094V11.0731H111.169C111.828 10.3772 112.649 9.88811 114.009 9.88811H116.536V12.2643H113.928C112.097 12.2643 111.088 13.1546 111.088 14.9854V19.7128ZM123.207 7.24228C123.207 8.05734 122.549 8.56519 121.652 8.56519C120.762 8.56519 120.097 8.05734 120.097 7.24228C120.097 6.42721 120.762 5.90055 121.652 5.90055C122.543 5.90055 123.207 6.42721 123.207 7.24228ZM122.938 19.7128H120.386V9.88811H122.938V19.7128ZM129.966 19.7128H127.414V9.89438H129.966V11.0794H130.041C130.725 10.3207 131.772 9.63732 133.232 9.63732C135.314 9.63732 137.044 10.9979 137.044 13.8004V19.7128H134.518V14.2268C134.518 12.5151 133.37 11.9697 132.399 11.9697C131.132 11.9697 129.966 12.8662 129.966 14.7722V19.7128ZM151.001 14.8099C151.001 17.9385 148.781 19.9636 145.785 19.9636C142.806 19.9636 140.587 17.9573 140.587 14.8099C140.587 11.6624 142.788 9.63732 145.785 9.63732C148.781 9.63732 151.001 11.6813 151.001 14.8099ZM143.139 14.8099C143.139 16.5591 144.286 17.6501 145.785 17.6501C147.302 17.6501 148.449 16.5779 148.449 14.8099C148.449 13.0418 147.283 11.9509 145.785 11.9509C144.286 11.9509 143.139 13.0606 143.139 14.8099Z" fill="#609966"/>
</g>
</svg>
