<svg width="28" height="29" viewBox="0 0 28 29" fill="none" xmlns="http://www.w3.org/2000/svg">
<path d="M26.8997 26.7971C25.9792 25.2485 25.5726 23.4799 25.2531 21.729C24.9011 19.6283 24.7572 17.513 24.671 15.3874C24.588 13.3241 24.5218 11.159 23.7368 9.21812C22.4812 6.11583 19.8552 3.97463 16.6461 3.20139C16.4254 1.95176 15.3284 1 14.0002 1C12.6531 1 11.5477 1.97978 11.3491 3.25536C9.85381 3.61137 8.4531 4.20816 7.16588 5.19105C5.36378 6.56628 4.15012 8.84655 3.734 11.0313C2.74941 16.2011 3.91894 22.0528 1.10072 26.7971C0.812806 27.2808 1.17218 28.055 1.7974 27.9969C4.13961 27.7779 6.59846 27.3845 8.70739 26.2968C11.0906 25.0679 12.962 22.9994 13.975 20.5468C13.9845 20.524 13.9897 20.5001 13.9992 20.4773C14.4668 21.6283 15.1204 22.7067 15.9295 23.6491C18.5291 26.6746 22.3645 27.6368 26.202 27.9959C26.8283 28.055 27.1866 27.2808 26.8997 26.7971ZM13.1953 5.65707C13.1953 5.67472 13.1922 5.69651 13.1922 5.71416C13.1922 6.40021 13.1932 7.08523 13.1932 7.77128C13.1932 9.14235 13.1943 10.5134 13.1943 11.8855V12.5716C13.1953 13.9074 13.1186 15.2816 13.188 16.635C13.1071 17.7943 12.9137 18.9339 12.4608 20.0102C10.8006 23.9605 7.14592 25.6243 3.18864 26.2294C4.80371 22.5562 4.78164 18.196 4.9918 14.2914C5.1263 11.7869 5.5298 9.42362 7.17114 7.42255C8.65591 5.61244 10.8773 4.82364 13.1386 4.53718C13.1554 4.89006 13.1953 5.23257 13.1953 5.48686V5.65707ZM15.5407 20.0092C15.0762 18.8997 14.8881 17.7289 14.8135 16.5395C14.9333 14.6951 14.8104 12.8093 14.8083 11.0023V7.99858C14.8083 7.31253 14.8093 6.62751 14.8093 5.94146C14.8093 5.93316 14.8083 5.92174 14.8083 5.91343C14.8114 5.52837 14.8881 4.96064 14.8818 4.41574C15.5964 4.46556 16.4454 4.76863 17.0202 4.95545C17.9491 5.25748 18.8318 5.70689 19.6251 6.27255C21.1036 7.3281 22.1512 9.12367 22.582 10.8528C23.037 12.6764 23.015 14.5851 23.1022 16.4492C23.1925 18.361 23.3827 20.2635 23.699 22.1525C23.9523 23.5412 24.2791 24.9289 24.8255 26.2304C20.864 25.6263 17.1957 23.9636 15.5407 20.0092Z" fill="#486642" stroke="#486642" stroke-width="0.2"/>
<path d="M13.9994 29C15.6572 29 17 27.6574 17 26H11C11 27.6563 12.3428 29 13.9994 29Z" fill="#486642"/>
</svg>
