<svg width="24" height="24" viewBox="0 0 24 24" fill="none" xmlns="http://www.w3.org/2000/svg">
<g id="Play">
<path id="Union" d="M10 16.4999L16 11.9999L10 7.49994V16.4999ZM12 1.99994C6.48 1.99994 2 6.47994 2 11.9999C2 17.5199 6.48 21.9999 12 21.9999C17.52 21.9999 22 17.5199 22 11.9999C22 6.47994 17.52 1.99994 12 1.99994ZM12 19.9999C7.59 19.9999 4 16.4099 4 11.9999C4 7.58994 7.59 3.99994 12 3.99994C16.41 3.99994 20 7.58994 20 11.9999C20 16.4099 16.41 19.9999 12 19.9999Z" fill="#609966"/>
</g>
</svg>
