<svg width="22" height="20" viewBox="0 0 22 20" fill="none" xmlns="http://www.w3.org/2000/svg">
<g clip-path="url(#clip0_1873_8769)">
<path d="M2.83747 13.2075C2.02714 9.96616 1.62197 8.34643 2.47292 7.25655C3.32292 6.16666 4.99459 6.16666 8.33509 6.16666H12.7079C16.0493 6.16666 17.7191 6.16666 18.57 7.25655C19.421 8.34549 19.0158 9.9671 18.2055 13.2075C17.6898 15.2692 17.4329 16.2996 16.6641 16.9003C15.8954 17.5 14.8329 17.5 12.7079 17.5H8.33509C6.21009 17.5 5.14759 17.5 4.37881 16.9003C3.61003 16.2996 3.3522 15.2692 2.83747 13.2075Z" stroke="#609966" stroke-width="2"/>
<path d="M17.6044 6.63851L16.9339 4.17823C16.6751 3.22906 16.5457 2.75495 16.2803 2.39701C16.0157 2.04139 15.6563 1.76744 15.2433 1.60651C14.8277 1.44406 14.3366 1.44406 13.3544 1.44406M3.43774 6.63851L4.1083 4.17823C4.36708 3.22906 4.49647 2.75495 4.76186 2.39701C5.02647 2.04139 5.38584 1.76744 5.79886 1.60651C6.21441 1.44406 6.70552 1.44406 7.68774 1.44406" stroke="#609966" stroke-width="2"/>
<path d="M7.68774 1.44444C7.68774 1.19396 7.78725 0.953739 7.96437 0.776621C8.14148 0.599504 8.38171 0.5 8.63219 0.5H12.41C12.6604 0.5 12.9007 0.599504 13.0778 0.776621C13.2549 0.953739 13.3544 1.19396 13.3544 1.44444C13.3544 1.69493 13.2549 1.93515 13.0778 2.11227C12.9007 2.28938 12.6604 2.38889 12.41 2.38889H8.63219C8.38171 2.38889 8.14148 2.28938 7.96437 2.11227C7.78725 1.93515 7.68774 1.69493 7.68774 1.44444Z" stroke="#609966" stroke-width="2"/>
</g>
<defs>
<clipPath id="clip0_1873_8769">
<rect width="21.0429" height="19" fill="white" transform="translate(0 0.5)"/>
</clipPath>
</defs>
</svg>
