<svg width="19" height="19" viewBox="0 0 19 19" fill="none" xmlns="http://www.w3.org/2000/svg">
<path d="M16.5575 9.0575L9.935 2.435C9.6575 2.1575 9.275 2 8.8775 2H3.5C2.675 2 2 2.675 2 3.5V8.8775C2 9.275 2.1575 9.6575 2.4425 9.935L9.065 16.5575C9.65 17.1425 10.6025 17.1425 11.1875 16.5575L16.565 11.18C17.15 10.595 17.15 9.65 16.5575 9.0575ZM10.1225 15.5L3.5 8.8775V3.5H8.8775L15.5 10.1225L10.1225 15.5Z" fill="#609966"/>
<path d="M5.375 6.5C5.99632 6.5 6.5 5.99632 6.5 5.375C6.5 4.75368 5.99632 4.25 5.375 4.25C4.75368 4.25 4.25 4.75368 4.25 5.375C4.25 5.99632 4.75368 6.5 5.375 6.5Z" fill="#609966"/>
</svg>
