<svg width="15" height="15" viewBox="0 0 15 15" fill="none" xmlns="http://www.w3.org/2000/svg">
<g id="Group">
<path id="Vector" d="M1.63881 10.7175C1.0207 8.23885 0.71165 7.00023 1.36073 6.16679C2.00909 5.33334 3.28421 5.33334 5.83227 5.33334H9.16773C11.7165 5.33334 12.9902 5.33334 13.6393 6.16679C14.2883 6.99951 13.9793 8.23957 13.3612 10.7175C12.9679 12.2941 12.7719 13.0821 12.1855 13.5414C11.5991 14 10.7886 14 9.16773 14H5.83227C4.21136 14 3.40091 14 2.8145 13.5414C2.2281 13.0821 2.03143 12.2941 1.63881 10.7175Z" stroke="#40513B" stroke-width="1.5"/>
<path id="Vector_2" d="M12.903 5.69415L12.3915 3.81276C12.1941 3.08692 12.0954 2.72437 11.893 2.45065C11.6911 2.1787 11.417 1.96921 11.102 1.84615C10.785 1.72192 10.4104 1.72192 9.66115 1.72192M2.09692 5.69415L2.60841 3.81276C2.8058 3.08692 2.90449 2.72437 3.10693 2.45065C3.30877 2.1787 3.58289 1.96921 3.89793 1.84615C4.21491 1.72192 4.58952 1.72192 5.33873 1.72192" stroke="#40513B" stroke-width="1.5"/>
<path id="Vector_3" d="M5.33838 1.72222C5.33838 1.53068 5.41428 1.34698 5.54938 1.21153C5.68448 1.07609 5.86772 1 6.05878 1H8.94039C9.13145 1 9.31469 1.07609 9.44979 1.21153C9.58489 1.34698 9.66079 1.53068 9.66079 1.72222C9.66079 1.91377 9.58489 2.09747 9.44979 2.23291C9.31469 2.36835 9.13145 2.44445 8.94039 2.44445H6.05878C5.86772 2.44445 5.68448 2.36835 5.54938 2.23291C5.41428 2.09747 5.33838 1.91377 5.33838 1.72222Z" stroke="#40513B" stroke-width="1.5"/>
</g>
</svg>
