<svg width="19" height="19" viewBox="0 0 19 19" fill="none" xmlns="http://www.w3.org/2000/svg">
<g id="User">
<path id="Union" d="M9.5 4.925C10.37 4.925 11.075 5.63 11.075 6.5C11.075 7.37 10.37 8.075 9.5 8.075C8.63 8.075 7.925 7.37 7.925 6.5C7.925 5.63 8.63 4.925 9.5 4.925ZM9.5 11.675C11.7275 11.675 14.075 12.77 14.075 13.25V14.075H4.925V13.25C4.925 12.77 7.2725 11.675 9.5 11.675ZM9.5 3.5C7.8425 3.5 6.5 4.8425 6.5 6.5C6.5 8.1575 7.8425 9.5 9.5 9.5C11.1575 9.5 12.5 8.1575 12.5 6.5C12.5 4.8425 11.1575 3.5 9.5 3.5ZM9.5 10.25C7.4975 10.25 3.5 11.255 3.5 13.25V15.5H15.5V13.25C15.5 11.255 11.5025 10.25 9.5 10.25Z" fill="#A4907C"/>
</g>
</svg>
