<svg width="24" height="24" viewBox="0 0 24 24" fill="none" xmlns="http://www.w3.org/2000/svg">
<g id="User Multiple">
<path id="Union" fill-rule="evenodd" clip-rule="evenodd" d="M9 12C11.21 12 13 10.21 13 8C13 5.79 11.21 4 9 4C6.79 4 5 5.79 5 8C5 10.21 6.79 12 9 12ZM9 6C10.1 6 11 6.9 11 8C11 9.1 10.1 10 9 10C7.9 10 7 9.1 7 8C7 6.9 7.9 6 9 6ZM18.9999 8C18.9999 10.21 17.2099 12 14.9999 12C14.5299 12 14.0899 11.9 13.6699 11.76C14.4999 10.73 14.9999 9.42 14.9999 8C14.9999 6.58 14.4999 5.27 13.6699 4.24C14.0899 4.1 14.5299 4 14.9999 4C17.2099 4 18.9999 5.79 18.9999 8ZM18.9999 17C18.9999 15.32 18.0399 14.06 16.6699 13.13C19.4299 13.53 22.9999 14.82 22.9999 17V20H18.9999V17ZM1 17C1 14.34 6.33 13 9 13C11.67 13 17 14.34 17 17V20H1V17ZM3 17.01V18H15V17C14.8 16.29 11.7 15 9 15C6.3 15 3.2 16.29 3 17.01Z" fill="#808080"/>
</g>
</svg>
