<svg width="16" height="8" viewBox="0 0 16 8" fill="none" xmlns="http://www.w3.org/2000/svg">
<path id="Vector" d="M8.00012 7.99999C7.89488 8.0006 7.79055 7.98042 7.69312 7.94063C7.59569 7.90083 7.50707 7.8422 7.43235 7.76808L1.03498 1.37071C0.960421 1.29615 0.901277 1.20763 0.860925 1.11022C0.820574 1.0128 0.799805 0.908387 0.799805 0.802943C0.799805 0.589989 0.8844 0.385758 1.03498 0.235176C1.18556 0.0845953 1.38979 0 1.60275 0C1.8157 0 2.01993 0.0845953 2.17051 0.235176L8.00012 6.07278L13.8297 0.235176C13.9803 0.0845953 14.1845 0 14.3975 0C14.6104 0 14.8147 0.0845953 14.9653 0.235176C15.1158 0.385758 15.2004 0.589989 15.2004 0.802943C15.2004 1.0159 15.1158 1.22013 14.9653 1.37071L8.56789 7.76808C8.49316 7.8422 8.40455 7.90083 8.30712 7.94063C8.20969 7.98042 8.10536 8.0006 8.00012 7.99999Z" fill="#609966"/>
</svg>
